<svg xmlns="http://www.w3.org/2000/svg" viewBox="0 0 900 520" role="img" aria-labelledby="title desc">
  <title id="title">Field advisory course image</title>
  <desc id="desc">An illustrated field advisory map with GPS marker, farm path, and inspection notes.</desc>
  <rect width="900" height="520" fill="#eef8ef"/>
  <path d="M0 398c128-72 259-88 393-48 174 52 343 43 507-28v198H0z" fill="#2f7f43"/>
  <path d="M0 305c129-58 264-64 405-16 160 54 325 56 495 6v82c-166 72-335 81-507 28-135-42-266-26-393 48z" fill="#7db474"/>
  <rect x="92" y="82" width="320" height="260" rx="22" fill="#fff" stroke="#dfe8d8" stroke-width="5"/>
  <path d="M140 142h220M140 188h180M140 234h214M140 280h132" stroke="#9ab99c" stroke-width="16" stroke-linecap="round"/>
  <path d="M610 98c-80 0-145 65-145 145 0 106 145 210 145 210s145-104 145-210c0-80-65-145-145-145z" fill="#0b4f2a"/>
  <circle cx="610" cy="242" r="62" fill="#fff"/>
  <circle cx="610" cy="242" r="30" fill="#c99b22"/>
  <path d="M252 420c84-93 181-126 291-98" fill="none" stroke="#fff" stroke-width="18" stroke-linecap="round" stroke-dasharray="2 36"/>
</svg>
